<svg width="300" height="300" viewBox="0 0 300 300" fill="none" xmlns="http://www.w3.org/2000/svg">
<g clip-path="url(#clip0_13_2)">
<path d="M157.3 133.1V237.1H137.9V125.8L157.3 133.1Z" fill="black"/>
<path d="M79.8 123.4C79.8 96.8 94.3 82.3 111.3 82.3C128.3 82.3 130.7 84.7 150 94.4C169.3 104.1 174.2 106.5 183.9 106.5C193.6 106.5 198.4 99.2 198.4 84.7H215.3C217.7 113.7 200.8 125.8 183.8 125.8C166.8 125.8 162 123.4 145.1 113.7C128.2 104 123.3 101.6 113.6 101.6C103.9 101.6 99.1 108.9 96.7 125.8L79.8 123.4Z" fill="black"/>
<path d="M150 300C67.3 300 0 232.7 0 150C0 67.3 67.3 0 150 0C232.7 0 300 67.3 300 150C300 232.7 232.7 300 150 300ZM150 9.7C72.6 9.7 9.7 72.6 9.7 150C9.7 227.4 72.6 290.3 150 290.3C227.4 290.3 290.3 227.4 290.3 150C290.3 72.6 227.4 9.7 150 9.7Z" fill="black"/>
</g>
<defs>
<clipPath id="clip0_13_2">
<rect width="300" height="300" fill="white"/>
</clipPath>
</defs>
</svg>
